<?xml version="1.0" encoding="UTF-8" standalone="no"?>
<!DOCTYPE svg PUBLIC "-//W3C//DTD SVG 1.1//EN"
 "http://www.w3.org/Graphics/SVG/1.1/DTD/svg11.dtd">
<!-- Generated by graphviz version 2.44.0 (20200408.0750)
 -->
<!-- Title: dependencies Pages: 1 -->
<svg width="1387pt" height="284pt"
 viewBox="0.00 0.00 1387.00 284.00" xmlns="http://www.w3.org/2000/svg" xmlns:xlink="http://www.w3.org/1999/xlink">
<g id="graph0" class="graph" transform="scale(1 1) rotate(0) translate(4 280)">
<title>dependencies</title>
<polygon fill="white" stroke="transparent" points="-4,4 -4,-280 1383,-280 1383,4 -4,4"/>
<text text-anchor="start" x="668.51" y="-42.4" font-family="sans-serif" font-weight="bold" font-size="14.00">Legend</text>
<polygon fill="#ffffb3" stroke="transparent" points="455.5,-10 455.5,-30 475.5,-30 475.5,-10 455.5,-10"/>
<text text-anchor="start" x="479.13" y="-15.4" font-family="sans-serif" font-size="14.00"> &#160;Declarations</text>
<polygon fill="#8dd3c7" stroke="transparent" points="568.5,-10 568.5,-30 588.5,-30 588.5,-10 568.5,-10"/>
<text text-anchor="start" x="592.23" y="-15.4" font-family="sans-serif" font-size="14.00"> &#160;Module</text>
<polygon fill="#80b1d3" stroke="transparent" points="654.5,-10 654.5,-30 674.5,-30 674.5,-10 654.5,-10"/>
<text text-anchor="start" x="678.28" y="-15.4" font-family="sans-serif" font-size="14.00"> &#160;Bootstrap</text>
<polygon fill="#fdb462" stroke="transparent" points="751.5,-10 751.5,-30 771.5,-30 771.5,-10 751.5,-10"/>
<text text-anchor="start" x="775.17" y="-15.4" font-family="sans-serif" font-size="14.00"> &#160;Providers</text>
<polygon fill="#fb8072" stroke="transparent" points="847.5,-10 847.5,-30 867.5,-30 867.5,-10 847.5,-10"/>
<text text-anchor="start" x="871.23" y="-15.4" font-family="sans-serif" font-size="14.00"> &#160;Exports</text>
<g id="clust1" class="cluster">
<title>cluster_AppModule</title>
<polygon fill="none" stroke="black" stroke-dasharray="1,5" points="8,-70 8,-268 1371,-268 1371,-70 8,-70"/>
</g>
<g id="clust14" class="cluster">
<title>cluster_AppModule_bootstrap</title>
<polygon fill="none" stroke="black" points="628,-208 628,-260 752,-260 752,-208 628,-208"/>
</g>
<g id="clust12" class="cluster">
<title>cluster_AppModule_imports</title>
<polygon fill="none" stroke="black" points="1219,-78 1219,-130 1363,-130 1363,-78 1219,-78"/>
</g>
<g id="clust2" class="cluster">
<title>cluster_AppModule_declarations</title>
<polygon fill="none" stroke="black" points="16,-78 16,-130 1211,-130 1211,-78 16,-78"/>
</g>
<!-- AppComponent -->
<g id="node1" class="node">
<title>AppComponent</title>
<polygon fill="#ffffb3" stroke="black" points="1202.94,-122 1097.06,-122 1097.06,-86 1202.94,-86 1202.94,-122"/>
<text text-anchor="middle" x="1150" y="-99.8" font-family="Times,serif" font-size="14.00">AppComponent</text>
</g>
<!-- AppModule -->
<g id="node10" class="node">
<title>AppModule</title>
<polygon fill="#8dd3c7" stroke="black" points="731.66,-187 728.66,-191 707.66,-191 704.66,-187 648.34,-187 648.34,-151 731.66,-151 731.66,-187"/>
<text text-anchor="middle" x="690" y="-164.8" font-family="Times,serif" font-size="14.00">AppModule</text>
</g>
<!-- AppComponent&#45;&gt;AppModule -->
<g id="edge1" class="edge">
<title>AppComponent&#45;&gt;AppModule</title>
<path fill="none" stroke="black" d="M1150,-122.13C1150,-142.57 1150,-173 1150,-173 1150,-173 742.04,-173 742.04,-173"/>
<polygon fill="black" stroke="black" points="742.04,-169.5 732.04,-173 742.04,-176.5 742.04,-169.5"/>
</g>
<!-- ArtistaComponent -->
<g id="node2" class="node">
<title>ArtistaComponent</title>
<polygon fill="#ffffb3" stroke="black" points="1079.93,-122 960.07,-122 960.07,-86 1079.93,-86 1079.93,-122"/>
<text text-anchor="middle" x="1020" y="-99.8" font-family="Times,serif" font-size="14.00">ArtistaComponent</text>
</g>
<!-- ArtistaComponent&#45;&gt;AppModule -->
<g id="edge2" class="edge">
<title>ArtistaComponent&#45;&gt;AppModule</title>
<path fill="none" stroke="black" d="M1020,-122.27C1020,-140.56 1020,-166 1020,-166 1020,-166 741.79,-166 741.79,-166"/>
<polygon fill="black" stroke="black" points="741.79,-162.5 731.79,-166 741.79,-169.5 741.79,-162.5"/>
</g>
<!-- DomseguroPipe -->
<g id="node3" class="node">
<title>DomseguroPipe</title>
<polygon fill="#ffffb3" stroke="black" points="942.2,-122 835.8,-122 835.8,-86 942.2,-86 942.2,-122"/>
<text text-anchor="middle" x="889" y="-99.8" font-family="Times,serif" font-size="14.00">DomseguroPipe</text>
</g>
<!-- DomseguroPipe&#45;&gt;AppModule -->
<g id="edge3" class="edge">
<title>DomseguroPipe&#45;&gt;AppModule</title>
<path fill="none" stroke="black" d="M889,-122.01C889,-138.05 889,-159 889,-159 889,-159 741.72,-159 741.72,-159"/>
<polygon fill="black" stroke="black" points="741.72,-155.5 731.72,-159 741.72,-162.5 741.72,-155.5"/>
</g>
<!-- HomeComponent -->
<g id="node4" class="node">
<title>HomeComponent</title>
<polygon fill="#ffffb3" stroke="black" points="817.55,-122 702.45,-122 702.45,-86 817.55,-86 817.55,-122"/>
<text text-anchor="middle" x="760" y="-99.8" font-family="Times,serif" font-size="14.00">HomeComponent</text>
</g>
<!-- HomeComponent&#45;&gt;AppModule -->
<g id="edge4" class="edge">
<title>HomeComponent&#45;&gt;AppModule</title>
<path fill="none" stroke="black" d="M717.03,-122.11C717.03,-122.11 717.03,-140.99 717.03,-140.99"/>
<polygon fill="black" stroke="black" points="713.53,-140.99 717.03,-150.99 720.53,-140.99 713.53,-140.99"/>
</g>
<!-- LoadingComponent -->
<g id="node5" class="node">
<title>LoadingComponent</title>
<polygon fill="#ffffb3" stroke="black" points="683.99,-122 556.01,-122 556.01,-86 683.99,-86 683.99,-122"/>
<text text-anchor="middle" x="620" y="-99.8" font-family="Times,serif" font-size="14.00">LoadingComponent</text>
</g>
<!-- LoadingComponent&#45;&gt;AppModule -->
<g id="edge5" class="edge">
<title>LoadingComponent&#45;&gt;AppModule</title>
<path fill="none" stroke="black" d="M666.08,-122.11C666.08,-122.11 666.08,-140.99 666.08,-140.99"/>
<polygon fill="black" stroke="black" points="662.58,-140.99 666.08,-150.99 669.58,-140.99 662.58,-140.99"/>
</g>
<!-- NavbarComponent -->
<g id="node6" class="node">
<title>NavbarComponent</title>
<polygon fill="#ffffb3" stroke="black" points="538.03,-122 415.97,-122 415.97,-86 538.03,-86 538.03,-122"/>
<text text-anchor="middle" x="477" y="-99.8" font-family="Times,serif" font-size="14.00">NavbarComponent</text>
</g>
<!-- NavbarComponent&#45;&gt;AppModule -->
<g id="edge6" class="edge">
<title>NavbarComponent&#45;&gt;AppModule</title>
<path fill="none" stroke="black" d="M477,-122.01C477,-138.05 477,-159 477,-159 477,-159 638.17,-159 638.17,-159"/>
<polygon fill="black" stroke="black" points="638.17,-162.5 648.17,-159 638.17,-155.5 638.17,-162.5"/>
</g>
<!-- NoimagePipe -->
<g id="node7" class="node">
<title>NoimagePipe</title>
<polygon fill="#ffffb3" stroke="black" points="398.21,-122 305.79,-122 305.79,-86 398.21,-86 398.21,-122"/>
<text text-anchor="middle" x="352" y="-99.8" font-family="Times,serif" font-size="14.00">NoimagePipe</text>
</g>
<!-- NoimagePipe&#45;&gt;AppModule -->
<g id="edge7" class="edge">
<title>NoimagePipe&#45;&gt;AppModule</title>
<path fill="none" stroke="black" d="M352,-122.27C352,-140.56 352,-166 352,-166 352,-166 638.22,-166 638.22,-166"/>
<polygon fill="black" stroke="black" points="638.22,-169.5 648.22,-166 638.22,-162.5 638.22,-169.5"/>
</g>
<!-- SearchComponent -->
<g id="node8" class="node">
<title>SearchComponent</title>
<polygon fill="#ffffb3" stroke="black" points="287.92,-122 168.08,-122 168.08,-86 287.92,-86 287.92,-122"/>
<text text-anchor="middle" x="228" y="-99.8" font-family="Times,serif" font-size="14.00">SearchComponent</text>
</g>
<!-- SearchComponent&#45;&gt;AppModule -->
<g id="edge8" class="edge">
<title>SearchComponent&#45;&gt;AppModule</title>
<path fill="none" stroke="black" d="M228,-122.13C228,-142.57 228,-173 228,-173 228,-173 638.19,-173 638.19,-173"/>
<polygon fill="black" stroke="black" points="638.19,-176.5 648.19,-173 638.19,-169.5 638.19,-176.5"/>
</g>
<!-- TarjetasComponent -->
<g id="node9" class="node">
<title>TarjetasComponent</title>
<polygon fill="#ffffb3" stroke="black" points="150.42,-122 23.58,-122 23.58,-86 150.42,-86 150.42,-122"/>
<text text-anchor="middle" x="87" y="-99.8" font-family="Times,serif" font-size="14.00">TarjetasComponent</text>
</g>
<!-- TarjetasComponent&#45;&gt;AppModule -->
<g id="edge9" class="edge">
<title>TarjetasComponent&#45;&gt;AppModule</title>
<path fill="none" stroke="black" d="M87,-122.01C87,-144.49 87,-180 87,-180 87,-180 638.08,-180 638.08,-180"/>
<polygon fill="black" stroke="black" points="638.08,-183.5 648.08,-180 638.08,-176.5 638.08,-183.5"/>
</g>
<!-- AppComponent  -->
<g id="node12" class="node">
<title>AppComponent </title>
<polygon fill="#80b1d3" stroke="black" points="744.44,-252 635.56,-252 635.56,-216 744.44,-216 744.44,-252"/>
<text text-anchor="middle" x="690" y="-229.8" font-family="Times,serif" font-size="14.00">AppComponent </text>
</g>
<!-- AppModule&#45;&gt;AppComponent  -->
<g id="edge11" class="edge">
<title>AppModule&#45;&gt;AppComponent </title>
<path fill="none" stroke="black" stroke-dasharray="1,5" d="M690,-187.11C690,-187.11 690,-205.99 690,-205.99"/>
<polygon fill="black" stroke="black" points="686.5,-205.99 690,-215.99 693.5,-205.99 686.5,-205.99"/>
</g>
<!-- AppRoutingModule -->
<g id="node11" class="node">
<title>AppRoutingModule</title>
<polygon fill="#8dd3c7" stroke="black" points="1355.27,-122 1352.27,-126 1331.27,-126 1328.27,-122 1226.73,-122 1226.73,-86 1355.27,-86 1355.27,-122"/>
<text text-anchor="middle" x="1291" y="-99.8" font-family="Times,serif" font-size="14.00">AppRoutingModule</text>
</g>
<!-- AppRoutingModule&#45;&gt;AppModule -->
<g id="edge10" class="edge">
<title>AppRoutingModule&#45;&gt;AppModule</title>
<path fill="none" stroke="black" d="M1291,-122.01C1291,-144.49 1291,-180 1291,-180 1291,-180 741.78,-180 741.78,-180"/>
<polygon fill="black" stroke="black" points="741.78,-176.5 731.78,-180 741.78,-183.5 741.78,-176.5"/>
</g>
</g>
</svg>
