<?xml version="1.0" encoding="UTF-8" standalone="no"?>
<!DOCTYPE svg PUBLIC "-//W3C//DTD SVG 1.1//EN"
 "http://www.w3.org/Graphics/SVG/1.1/DTD/svg11.dtd">
<!-- Generated by graphviz version 2.44.0 (20200408.0750)
 -->
<!-- Title: dependencies Pages: 1 -->
<svg width="1387pt" height="284pt"
 viewBox="0.00 0.00 1387.00 284.00" xmlns="http://www.w3.org/2000/svg" xmlns:xlink="http://www.w3.org/1999/xlink">
<g id="graph0" class="graph" transform="scale(1 1) rotate(0) translate(4 280)">
<title>dependencies</title>
<polygon fill="white" stroke="transparent" points="-4,4 -4,-280 1383,-280 1383,4 -4,4"/>
<text text-anchor="start" x="668.51" y="-42.4" font-family="sans-serif" font-weight="bold" font-size="14.00">Legend</text>
<polygon fill="#ffffb3" stroke="transparent" points="455.5,-10 455.5,-30 475.5,-30 475.5,-10 455.5,-10"/>
<text text-anchor="start" x="479.13" y="-15.4" font-family="sans-serif" font-size="14.00"> &#160;Declarations</text>
<polygon fill="#8dd3c7" stroke="transparent" points="568.5,-10 568.5,-30 588.5,-30 588.5,-10 568.5,-10"/>
<text text-anchor="start" x="592.23" y="-15.4" font-family="sans-serif" font-size="14.00"> &#160;Module</text>
<polygon fill="#80b1d3" stroke="transparent" points="654.5,-10 654.5,-30 674.5,-30 674.5,-10 654.5,-10"/>
<text text-anchor="start" x="678.28" y="-15.4" font-family="sans-serif" font-size="14.00"> &#160;Bootstrap</text>
<polygon fill="#fdb462" stroke="transparent" points="751.5,-10 751.5,-30 771.5,-30 771.5,-10 751.5,-10"/>
<text text-anchor="start" x="775.17" y="-15.4" font-family="sans-serif" font-size="14.00"> &#160;Providers</text>
<polygon fill="#fb8072" stroke="transparent" points="847.5,-10 847.5,-30 867.5,-30 867.5,-10 847.5,-10"/>
<text text-anchor="start" x="871.23" y="-15.4" font-family="sans-serif" font-size="14.00"> &#160;Exports</text>
<g id="clust1" class="cluster">
<title>cluster_AppModule</title>
<polygon fill="none" stroke="black" stroke-dasharray="1,5" points="8,-70 8,-268 1371,-268 1371,-70 8,-70"/>
</g>
<g id="clust2" class="cluster">
<title>cluster_AppModule_declarations</title>
<polygon fill="none" stroke="black" points="168,-78 168,-130 1363,-130 1363,-78 168,-78"/>
</g>
<g id="clust12" class="cluster">
<title>cluster_AppModule_imports</title>
<polygon fill="none" stroke="black" points="16,-78 16,-130 160,-130 160,-78 16,-78"/>
</g>
<g id="clust14" class="cluster">
<title>cluster_AppModule_bootstrap</title>
<polygon fill="none" stroke="black" points="638,-208 638,-260 762,-260 762,-208 638,-208"/>
</g>
<!-- AppComponent -->
<g id="node1" class="node">
<title>AppComponent</title>
<polygon fill="#ffffb3" stroke="black" points="1354.94,-122 1249.06,-122 1249.06,-86 1354.94,-86 1354.94,-122"/>
<text text-anchor="middle" x="1302" y="-99.8" font-family="Times,serif" font-size="14.00">AppComponent</text>
</g>
<!-- AppModule -->
<g id="node10" class="node">
<title>AppModule</title>
<polygon fill="#8dd3c7" stroke="black" points="741.66,-187 738.66,-191 717.66,-191 714.66,-187 658.34,-187 658.34,-151 741.66,-151 741.66,-187"/>
<text text-anchor="middle" x="700" y="-164.8" font-family="Times,serif" font-size="14.00">AppModule</text>
</g>
<!-- AppComponent&#45;&gt;AppModule -->
<g id="edge1" class="edge">
<title>AppComponent&#45;&gt;AppModule</title>
<path fill="none" stroke="black" d="M1302,-122.01C1302,-144.49 1302,-180 1302,-180 1302,-180 751.85,-180 751.85,-180"/>
<polygon fill="black" stroke="black" points="751.85,-176.5 741.85,-180 751.85,-183.5 751.85,-176.5"/>
</g>
<!-- ArtistaComponent -->
<g id="node2" class="node">
<title>ArtistaComponent</title>
<polygon fill="#ffffb3" stroke="black" points="1231.93,-122 1112.07,-122 1112.07,-86 1231.93,-86 1231.93,-122"/>
<text text-anchor="middle" x="1172" y="-99.8" font-family="Times,serif" font-size="14.00">ArtistaComponent</text>
</g>
<!-- ArtistaComponent&#45;&gt;AppModule -->
<g id="edge2" class="edge">
<title>ArtistaComponent&#45;&gt;AppModule</title>
<path fill="none" stroke="black" d="M1172,-122.13C1172,-142.57 1172,-173 1172,-173 1172,-173 751.89,-173 751.89,-173"/>
<polygon fill="black" stroke="black" points="751.89,-169.5 741.89,-173 751.89,-176.5 751.89,-169.5"/>
</g>
<!-- DomseguroPipe -->
<g id="node3" class="node">
<title>DomseguroPipe</title>
<polygon fill="#ffffb3" stroke="black" points="1094.2,-122 987.8,-122 987.8,-86 1094.2,-86 1094.2,-122"/>
<text text-anchor="middle" x="1041" y="-99.8" font-family="Times,serif" font-size="14.00">DomseguroPipe</text>
</g>
<!-- DomseguroPipe&#45;&gt;AppModule -->
<g id="edge3" class="edge">
<title>DomseguroPipe&#45;&gt;AppModule</title>
<path fill="none" stroke="black" d="M1041,-122.27C1041,-140.56 1041,-166 1041,-166 1041,-166 751.81,-166 751.81,-166"/>
<polygon fill="black" stroke="black" points="751.81,-162.5 741.81,-166 751.81,-169.5 751.81,-162.5"/>
</g>
<!-- HomeComponent -->
<g id="node4" class="node">
<title>HomeComponent</title>
<polygon fill="#ffffb3" stroke="black" points="969.55,-122 854.45,-122 854.45,-86 969.55,-86 969.55,-122"/>
<text text-anchor="middle" x="912" y="-99.8" font-family="Times,serif" font-size="14.00">HomeComponent</text>
</g>
<!-- HomeComponent&#45;&gt;AppModule -->
<g id="edge4" class="edge">
<title>HomeComponent&#45;&gt;AppModule</title>
<path fill="none" stroke="black" d="M912,-122.01C912,-138.05 912,-159 912,-159 912,-159 751.88,-159 751.88,-159"/>
<polygon fill="black" stroke="black" points="751.88,-155.5 741.88,-159 751.88,-162.5 751.88,-155.5"/>
</g>
<!-- LoadingComponent -->
<g id="node5" class="node">
<title>LoadingComponent</title>
<polygon fill="#ffffb3" stroke="black" points="835.99,-122 708.01,-122 708.01,-86 835.99,-86 835.99,-122"/>
<text text-anchor="middle" x="772" y="-99.8" font-family="Times,serif" font-size="14.00">LoadingComponent</text>
</g>
<!-- LoadingComponent&#45;&gt;AppModule -->
<g id="edge5" class="edge">
<title>LoadingComponent&#45;&gt;AppModule</title>
<path fill="none" stroke="black" d="M724.92,-122.11C724.92,-122.11 724.92,-140.99 724.92,-140.99"/>
<polygon fill="black" stroke="black" points="721.42,-140.99 724.92,-150.99 728.42,-140.99 721.42,-140.99"/>
</g>
<!-- NavbarComponent -->
<g id="node6" class="node">
<title>NavbarComponent</title>
<polygon fill="#ffffb3" stroke="black" points="690.03,-122 567.97,-122 567.97,-86 690.03,-86 690.03,-122"/>
<text text-anchor="middle" x="629" y="-99.8" font-family="Times,serif" font-size="14.00">NavbarComponent</text>
</g>
<!-- NavbarComponent&#45;&gt;AppModule -->
<g id="edge6" class="edge">
<title>NavbarComponent&#45;&gt;AppModule</title>
<path fill="none" stroke="black" d="M674.22,-122.11C674.22,-122.11 674.22,-140.99 674.22,-140.99"/>
<polygon fill="black" stroke="black" points="670.72,-140.99 674.22,-150.99 677.72,-140.99 670.72,-140.99"/>
</g>
<!-- NoimagePipe -->
<g id="node7" class="node">
<title>NoimagePipe</title>
<polygon fill="#ffffb3" stroke="black" points="550.21,-122 457.79,-122 457.79,-86 550.21,-86 550.21,-122"/>
<text text-anchor="middle" x="504" y="-99.8" font-family="Times,serif" font-size="14.00">NoimagePipe</text>
</g>
<!-- NoimagePipe&#45;&gt;AppModule -->
<g id="edge7" class="edge">
<title>NoimagePipe&#45;&gt;AppModule</title>
<path fill="none" stroke="black" d="M504,-122.01C504,-138.05 504,-159 504,-159 504,-159 647.95,-159 647.95,-159"/>
<polygon fill="black" stroke="black" points="647.95,-162.5 657.95,-159 647.95,-155.5 647.95,-162.5"/>
</g>
<!-- SearchComponent -->
<g id="node8" class="node">
<title>SearchComponent</title>
<polygon fill="#ffffb3" stroke="black" points="439.92,-122 320.08,-122 320.08,-86 439.92,-86 439.92,-122"/>
<text text-anchor="middle" x="380" y="-99.8" font-family="Times,serif" font-size="14.00">SearchComponent</text>
</g>
<!-- SearchComponent&#45;&gt;AppModule -->
<g id="edge8" class="edge">
<title>SearchComponent&#45;&gt;AppModule</title>
<path fill="none" stroke="black" d="M380,-122.27C380,-140.56 380,-166 380,-166 380,-166 648.17,-166 648.17,-166"/>
<polygon fill="black" stroke="black" points="648.17,-169.5 658.17,-166 648.17,-162.5 648.17,-169.5"/>
</g>
<!-- TarjetasComponent -->
<g id="node9" class="node">
<title>TarjetasComponent</title>
<polygon fill="#ffffb3" stroke="black" points="302.42,-122 175.58,-122 175.58,-86 302.42,-86 302.42,-122"/>
<text text-anchor="middle" x="239" y="-99.8" font-family="Times,serif" font-size="14.00">TarjetasComponent</text>
</g>
<!-- TarjetasComponent&#45;&gt;AppModule -->
<g id="edge9" class="edge">
<title>TarjetasComponent&#45;&gt;AppModule</title>
<path fill="none" stroke="black" d="M239,-122.13C239,-142.57 239,-173 239,-173 239,-173 648.28,-173 648.28,-173"/>
<polygon fill="black" stroke="black" points="648.28,-176.5 658.28,-173 648.28,-169.5 648.28,-176.5"/>
</g>
<!-- AppComponent  -->
<g id="node12" class="node">
<title>AppComponent </title>
<polygon fill="#80b1d3" stroke="black" points="754.44,-252 645.56,-252 645.56,-216 754.44,-216 754.44,-252"/>
<text text-anchor="middle" x="700" y="-229.8" font-family="Times,serif" font-size="14.00">AppComponent </text>
</g>
<!-- AppModule&#45;&gt;AppComponent  -->
<g id="edge11" class="edge">
<title>AppModule&#45;&gt;AppComponent </title>
<path fill="none" stroke="black" stroke-dasharray="1,5" d="M700,-187.11C700,-187.11 700,-205.99 700,-205.99"/>
<polygon fill="black" stroke="black" points="696.5,-205.99 700,-215.99 703.5,-205.99 696.5,-205.99"/>
</g>
<!-- AppRoutingModule -->
<g id="node11" class="node">
<title>AppRoutingModule</title>
<polygon fill="#8dd3c7" stroke="black" points="152.27,-122 149.27,-126 128.27,-126 125.27,-122 23.73,-122 23.73,-86 152.27,-86 152.27,-122"/>
<text text-anchor="middle" x="88" y="-99.8" font-family="Times,serif" font-size="14.00">AppRoutingModule</text>
</g>
<!-- AppRoutingModule&#45;&gt;AppModule -->
<g id="edge10" class="edge">
<title>AppRoutingModule&#45;&gt;AppModule</title>
<path fill="none" stroke="black" d="M88,-122.01C88,-144.49 88,-180 88,-180 88,-180 647.93,-180 647.93,-180"/>
<polygon fill="black" stroke="black" points="647.93,-183.5 657.93,-180 647.93,-176.5 647.93,-183.5"/>
</g>
</g>
</svg>
